<?xml version="1.0" encoding="UTF-8" standalone="no"?>
<!DOCTYPE svg PUBLIC "-//W3C//DTD SVG 1.1//EN" "http://www.w3.org/Graphics/SVG/1.1/DTD/svg11.dtd">
<svg width="100%" height="100%" viewBox="0 0 1339 440" version="1.1" xmlns="http://www.w3.org/2000/svg" xmlns:xlink="http://www.w3.org/1999/xlink" xml:space="preserve" xmlns:serif="http://www.serif.com/" style="fill-rule:evenodd;clip-rule:evenodd;stroke-linejoin:round;stroke-miterlimit:2;">
    <g id="Artboard1" transform="matrix(1.67381,0,0,0.734615,0,0)">
        <rect x="0" y="0" width="800" height="600" style="fill:none;"/>
        <g transform="matrix(0.831956,0,0,1.8956,-141.308,-1638.97)">
            <path d="M231.615,1000C236.457,998.82 240.302,995.148 241.706,990.367L256.023,941.597C257.015,938.212 259.724,935.602 263.145,934.735L281.937,929.967C286.619,928.78 290.973,926.55 294.673,923.446L297.076,921.43C298.995,919.82 298.236,916.708 295.792,916.162L292.73,915.478C288.016,914.425 283.125,914.449 278.422,915.55L259.544,919.967C256.108,920.771 252.503,919.701 250.063,917.152L214.906,880.444C211.459,876.845 206.356,875.356 201.514,876.536C216.134,892.676 227.542,914.503 232.015,923.687C232.625,924.941 231.911,926.432 230.553,926.75L228.561,923.031C227.591,921.219 225.388,920.464 223.51,921.298L218.464,923.541C217.782,923.844 217.22,924.365 216.867,925.023C216.498,925.708 215.903,926.244 215.183,926.541L213.349,927.296L215.569,927.151C216.26,927.106 216.947,927.275 217.538,927.634L218.534,928.239L220.152,929.183L216.149,930.12C213.578,930.722 211.093,931.647 208.756,932.875L196.994,939.05L188.679,926.761C186.898,924.128 183.538,923.068 180.569,924.203L176.079,925.918L188.152,943.693L184.875,945.413C184.338,945.695 184.537,946.507 185.143,946.51L188.843,946.53L186.306,967.866L191.12,967.318C194.261,966.961 196.748,964.499 197.137,961.362L198.973,946.583L212.114,946.651C214.755,946.664 217.386,946.343 219.946,945.694L223.931,944.683L222.929,946.266L222.323,947.261C221.964,947.852 221.431,948.318 220.798,948.596L218.76,949.489L220.736,949.316C221.511,949.248 222.286,949.45 222.929,949.889C223.546,950.31 224.284,950.514 225.029,950.469L230.541,950.137C232.592,950.014 234.2,948.329 234.228,946.275L234.284,942.056L234.285,942.056C235.636,941.713 236.957,942.708 236.992,944.103C237.248,954.314 237.166,978.943 231.615,1000Z" style="fill:rgb(0,7,68);fill-rule:nonzero;"/>
        </g>
        <g transform="matrix(0.597439,0,0,1.36126,-84.2169,-1144.85)">
            <path d="M333.431,914.677C332.036,914.677 330.787,913.7 330.496,912.28C330.162,910.657 331.208,909.071 332.831,908.738C336.098,908.067 339.368,907.403 342.64,906.745C344.268,906.414 345.846,907.47 346.172,909.094C346.499,910.718 345.448,912.3 343.823,912.627C340.559,913.284 337.297,913.946 334.038,914.615C333.834,914.657 333.631,914.677 333.431,914.677Z" style="fill:rgb(0,7,68);fill-rule:nonzero;"/>
        </g>
        <g transform="matrix(0.597439,0,0,1.36126,-84.2169,-1144.85)">
            <path d="M683.748,873.956C682.102,873.956 680.761,872.627 680.748,870.979C680.735,869.322 682.068,867.968 683.725,867.956C687.127,867.93 690.533,867.903 693.93,867.917C697.274,867.917 700.618,867.93 703.961,867.955C705.618,867.967 706.951,869.32 706.939,870.977C706.927,872.634 705.55,873.998 703.917,873.955C700.538,873.929 697.149,873.913 693.778,873.917C690.443,873.917 687.107,873.93 683.771,873.956L683.748,873.956ZM643.377,874.856C641.771,874.856 640.441,873.584 640.381,871.966C640.321,870.31 641.614,868.919 643.269,868.858C650.002,868.612 656.807,868.411 663.493,868.261C665.135,868.211 666.522,869.536 666.56,871.192C666.597,872.849 665.284,874.222 663.628,874.259C656.969,874.408 650.194,874.609 643.489,874.854C643.452,874.856 643.415,874.856 643.377,874.856ZM744.31,874.901C744.269,874.901 744.229,874.9 744.189,874.898C737.544,874.635 730.771,874.422 724.057,874.266C722.4,874.227 721.089,872.853 721.128,871.197C721.167,869.54 722.555,868.181 724.197,868.268C730.943,868.425 737.749,868.639 744.426,868.903C746.082,868.969 747.371,870.364 747.305,872.019C747.241,873.635 745.912,874.901 744.31,874.901ZM603.048,876.89C601.478,876.89 600.159,875.67 600.057,874.081C599.952,872.428 601.206,871.002 602.86,870.896C609.608,870.465 616.404,870.076 623.057,869.74C624.734,869.667 626.121,870.931 626.205,872.585C626.288,874.24 625.015,875.649 623.36,875.732C616.733,876.067 609.964,876.455 603.243,876.884C603.178,876.888 603.113,876.89 603.048,876.89ZM784.626,877.176C784.552,877.176 784.477,877.174 784.402,877.168C777.779,876.681 771.018,876.241 764.306,875.863C762.651,875.769 761.386,874.353 761.479,872.699C761.573,871.045 762.974,869.775 764.644,869.873C771.39,870.253 778.185,870.694 784.843,871.185C786.495,871.306 787.736,872.744 787.614,874.396C787.498,875.974 786.183,877.176 784.626,877.176ZM562.787,879.982C561.25,879.982 559.941,878.809 559.802,877.249C559.654,875.599 560.873,874.142 562.523,873.994C569.248,873.393 576.03,872.829 582.681,872.318C584.351,872.199 585.776,873.428 585.902,875.079C586.029,876.731 584.793,878.173 583.141,878.3C576.515,878.81 569.757,879.372 563.057,879.97C562.966,879.978 562.876,879.982 562.787,879.982ZM824.836,880.858C824.727,880.858 824.616,880.852 824.505,880.839C817.884,880.113 811.144,879.435 804.471,878.824C802.821,878.673 801.605,877.213 801.757,875.563C801.907,873.913 803.361,872.69 805.018,872.849C811.726,873.463 818.503,874.144 825.16,874.875C826.807,875.056 827.996,876.538 827.814,878.185C827.646,879.721 826.346,880.858 824.836,880.858ZM522.612,884.056C521.106,884.056 519.809,882.925 519.635,881.393C519.448,879.747 520.632,878.261 522.279,878.075C528.974,877.317 535.74,876.591 542.388,875.916C544.045,875.752 545.509,876.949 545.676,878.597C545.843,880.246 544.643,881.718 542.995,881.885C536.369,882.558 529.626,883.282 522.953,884.037C522.839,884.05 522.724,884.056 522.612,884.056ZM864.882,886.019C864.735,886.019 864.587,886.009 864.438,885.986C857.859,885.011 851.149,884.081 844.497,883.225C842.853,883.013 841.693,881.509 841.904,879.866C842.116,878.222 843.615,877.064 845.263,877.273C851.954,878.136 858.701,879.07 865.318,880.051C866.957,880.294 868.088,881.82 867.846,883.459C867.624,884.949 866.344,886.019 864.882,886.019ZM482.542,889.041C481.064,889.041 479.777,887.948 479.573,886.442C479.351,884.801 480.501,883.29 482.144,883.067C488.818,882.164 495.565,881.287 502.197,880.461C503.841,880.262 505.34,881.423 505.545,883.067C505.749,884.711 504.582,886.21 502.938,886.415C496.328,887.238 489.602,888.112 482.948,889.013C482.812,889.031 482.676,889.041 482.542,889.041ZM904.695,892.731C904.51,892.731 904.322,892.714 904.134,892.678C897.587,891.44 890.921,890.248 884.32,889.136C882.686,888.86 881.585,887.313 881.86,885.679C882.136,884.045 883.681,882.946 885.317,883.219C891.957,884.337 898.663,885.537 905.249,886.783C906.877,887.091 907.947,888.66 907.639,890.288C907.367,891.727 906.108,892.731 904.695,892.731ZM442.585,894.868C441.132,894.868 439.855,893.81 439.624,892.33C439.369,890.693 440.489,889.159 442.126,888.903C448.798,887.862 455.525,886.846 462.119,885.884C463.757,885.649 465.282,886.78 465.521,888.419C465.76,890.059 464.625,891.582 462.985,891.821C456.411,892.78 449.704,893.793 443.051,894.831C442.894,894.856 442.738,894.868 442.585,894.868ZM944.198,901.054C943.973,901.054 943.744,901.028 943.514,900.975C942.248,900.68 940.982,900.388 939.716,900.099C934.477,898.903 929.146,897.733 923.87,896.623C922.249,896.281 921.211,894.69 921.553,893.069C921.894,891.448 923.482,890.41 925.106,890.752C930.415,891.869 935.779,893.046 941.05,894.249C942.326,894.54 943.602,894.834 944.877,895.132C946.491,895.508 947.494,897.121 947.117,898.735C946.794,900.119 945.561,901.054 944.198,901.054ZM402.749,901.469C401.319,901.469 400.053,900.443 399.797,898.986C399.511,897.354 400.602,895.8 402.235,895.514C408.891,894.348 415.597,893.204 422.165,892.115C423.802,891.84 425.344,892.95 425.615,894.584C425.886,896.219 424.781,897.763 423.146,898.034C416.596,899.12 409.909,900.261 403.27,901.424C403.095,901.455 402.921,901.469 402.749,901.469ZM363.037,908.782C361.628,908.782 360.372,907.785 360.095,906.35C359.781,904.723 360.846,903.15 362.472,902.836C369.088,901.56 375.772,900.299 382.338,899.09C383.968,898.784 385.531,899.867 385.831,901.497C386.132,903.126 385.054,904.69 383.425,904.99C376.875,906.197 370.208,907.455 363.609,908.727C363.417,908.765 363.226,908.782 363.037,908.782ZM983.285,911.138C983.014,911.138 982.739,911.101 982.466,911.023C976.049,909.206 969.516,907.439 963.048,905.77C961.443,905.356 960.478,903.72 960.893,902.116C961.307,900.513 962.943,899.549 964.547,899.96C971.06,901.641 977.639,903.421 984.101,905.25C985.695,905.702 986.621,907.36 986.17,908.955C985.796,910.275 984.593,911.138 983.285,911.138ZM1021.86,923.052C1021.55,923.052 1021.23,923.002 1020.91,922.896C1014.58,920.777 1008.14,918.704 1001.76,916.732C1000.17,916.243 999.286,914.563 999.775,912.981C1000.26,911.398 1001.94,910.512 1003.53,911C1009.96,912.985 1016.44,915.073 1022.81,917.206C1024.39,917.733 1025.23,919.433 1024.71,921.004C1024.29,922.259 1023.12,923.052 1021.86,923.052ZM1059.84,936.789C1059.48,936.789 1059.11,936.723 1058.75,936.584C1052.55,934.169 1046.21,931.791 1039.91,929.514C1038.35,928.95 1037.55,927.23 1038.11,925.672C1038.67,924.115 1040.4,923.31 1041.95,923.871C1048.29,926.165 1054.68,928.56 1060.93,930.992C1062.47,931.593 1063.24,933.332 1062.63,934.876C1062.17,936.063 1061.04,936.789 1059.84,936.789ZM1097.11,952.348C1096.7,952.348 1096.29,952.263 1095.89,952.086C1089.8,949.368 1083.59,946.684 1077.42,944.107C1075.89,943.469 1075.16,941.712 1075.8,940.184C1076.44,938.655 1078.2,937.931 1079.73,938.57C1085.94,941.165 1092.21,943.869 1098.34,946.607C1099.85,947.283 1100.53,949.057 1099.85,950.57C1099.36,951.685 1098.26,952.348 1097.11,952.348ZM1133.58,969.737C1133.12,969.737 1132.66,969.632 1132.22,969.411C1126.28,966.392 1120.21,963.4 1114.17,960.52C1112.67,959.807 1112.04,958.017 1112.75,956.521C1113.46,955.024 1115.25,954.391 1116.75,955.104C1122.83,958.006 1128.95,961.02 1134.94,964.062C1136.42,964.813 1137.01,966.619 1136.25,968.096C1135.73,969.137 1134.67,969.737 1133.58,969.737ZM1169.11,988.97C1168.6,988.97 1168.09,988.841 1167.62,988.57C1161.84,985.246 1155.93,981.946 1150.04,978.76C1148.59,977.972 1148.04,976.151 1148.83,974.694C1149.62,973.238 1151.44,972.694 1152.9,973.483C1158.83,976.694 1164.79,980.02 1170.61,983.37C1172.05,984.196 1172.54,986.031 1171.71,987.466C1171.16,988.431 1170.15,988.97 1169.11,988.97ZM1203.58,1010.07C1203.01,1010.07 1202.45,1009.91 1201.94,1009.58C1196.37,1005.95 1190.64,1002.34 1184.92,998.843C1183.51,997.977 1183.06,996.131 1183.93,994.718C1184.79,993.306 1186.64,992.861 1188.05,993.725C1193.82,997.252 1199.59,1000.89 1205.21,1004.55C1206.6,1005.45 1207,1007.31 1206.09,1008.7C1205.52,1009.59 1204.56,1010.07 1203.58,1010.07ZM1236.82,1033.04C1236.2,1033.04 1235.58,1032.85 1235.05,1032.46C1229.69,1028.52 1224.17,1024.6 1218.66,1020.79C1217.29,1019.84 1216.95,1017.97 1217.89,1016.61C1218.84,1015.25 1220.71,1014.91 1222.07,1015.85C1227.63,1019.69 1233.19,1023.65 1238.6,1027.62C1239.93,1028.6 1240.22,1030.48 1239.24,1031.82C1238.65,1032.62 1237.74,1033.04 1236.82,1033.04ZM1268.67,1057.91C1267.99,1057.91 1267.31,1057.69 1266.75,1057.22C1261.64,1052.97 1256.37,1048.73 1251.09,1044.6C1249.78,1043.58 1249.55,1041.7 1250.57,1040.39C1251.59,1039.09 1253.47,1038.85 1254.78,1039.88C1260.11,1044.04 1265.43,1048.32 1270.59,1052.6C1271.86,1053.66 1272.04,1055.55 1270.98,1056.83C1270.39,1057.54 1269.53,1057.91 1268.67,1057.91ZM1298.93,1084.68C1298.2,1084.68 1297.46,1084.41 1296.88,1083.87C1292.04,1079.31 1287.05,1074.75 1282.03,1070.31C1280.78,1069.21 1280.67,1067.31 1281.77,1066.07C1282.86,1064.83 1284.76,1064.72 1286,1065.81C1291.07,1070.3 1296.11,1074.9 1300.99,1079.5C1302.2,1080.64 1302.25,1082.54 1301.12,1083.74C1300.53,1084.37 1299.73,1084.68 1298.93,1084.68ZM1327.4,1113.35C1326.6,1113.35 1325.79,1113.03 1325.2,1112.39C1320.67,1107.51 1315.99,1102.64 1311.28,1097.9C1310.11,1096.72 1310.12,1094.82 1311.29,1093.65C1312.47,1092.48 1314.37,1092.49 1315.53,1093.67C1320.29,1098.46 1325.02,1103.38 1329.6,1108.31C1330.73,1109.52 1330.66,1111.42 1329.44,1112.55C1328.87,1113.08 1328.13,1113.35 1327.4,1113.35ZM1353.85,1143.88C1352.97,1143.88 1352.1,1143.49 1351.51,1142.76C1347.34,1137.58 1343,1132.4 1338.62,1127.35C1337.54,1126.09 1337.67,1124.2 1338.93,1123.12C1340.18,1122.03 1342.07,1122.17 1343.16,1123.42C1347.58,1128.52 1351.96,1133.76 1356.18,1138.99C1357.22,1140.28 1357.02,1142.17 1355.73,1143.21C1355.17,1143.66 1354.51,1143.88 1353.85,1143.88ZM1378.19,1176.1C1377.26,1176.1 1376.35,1175.67 1375.76,1174.87L1372.73,1170.73C1371.05,1168.43 1369.36,1166.13 1367.67,1163.82C1366.4,1162.08 1365.12,1160.35 1363.83,1158.62C1362.84,1157.29 1363.11,1155.41 1364.44,1154.42C1365.76,1153.43 1367.64,1153.7 1368.63,1155.03C1369.94,1156.77 1371.24,1158.52 1372.52,1160.28C1374.2,1162.59 1375.89,1164.89 1377.57,1167.18L1380.6,1171.32C1381.58,1172.66 1381.29,1174.54 1379.95,1175.52C1379.42,1175.91 1378.8,1176.1 1378.19,1176.1ZM1401.31,1209.19C1400.33,1209.19 1399.36,1208.7 1398.79,1207.81C1395.49,1202.68 1391.81,1197.25 1387.54,1191.2C1386.59,1189.84 1386.91,1187.97 1388.27,1187.02C1389.62,1186.06 1391.49,1186.39 1392.45,1187.74C1396.76,1193.86 1400.48,1199.36 1403.83,1204.56C1404.73,1205.96 1404.33,1207.81 1402.94,1208.71C1402.43,1209.03 1401.87,1209.19 1401.31,1209.19Z" style="fill:rgb(0,7,68);fill-rule:nonzero;"/>
        </g>
    </g>
    <g transform="matrix(1.33769,0,0,1.33769,-623.07,-1250.43)">
        <path d="M1427.65,1211.66C1419.01,1211.66 1412.02,1204.66 1412.02,1196.03C1412.02,1187.4 1419.01,1180.4 1427.65,1180.4C1436.28,1180.4 1443.28,1187.4 1443.28,1196.03C1443.28,1204.66 1436.28,1211.66 1427.65,1211.66ZM1427.65,1176.43C1381.39,1176.43 1427.65,1232.13 1427.65,1232.13C1427.65,1232.13 1473.9,1176.43 1427.65,1176.43Z" style="fill:rgb(0,7,68);fill-rule:nonzero;"/>
    </g>
    <g transform="matrix(1.33769,0,0,1.33769,-623.07,-1250.43)">
        <path d="M1427.65,1207.35C1421.39,1207.35 1416.32,1202.28 1416.32,1196.03C1416.32,1189.77 1421.39,1184.71 1427.65,1184.71C1433.9,1184.71 1438.97,1189.77 1438.97,1196.03C1438.97,1202.28 1433.9,1207.35 1427.65,1207.35ZM1427.65,1182.53C1420.19,1182.53 1414.15,1188.57 1414.15,1196.03C1414.15,1203.48 1420.19,1209.53 1427.65,1209.53C1435.1,1209.53 1441.14,1203.48 1441.14,1196.03C1441.14,1188.57 1435.1,1182.53 1427.65,1182.53Z" style="fill:rgb(0,7,68);fill-rule:nonzero;"/>
    </g>
    <g transform="matrix(1.33769,0,0,1.33769,-623.07,-1250.43)">
        <path d="M1432.89,1243.01C1432.89,1245.9 1430.54,1248.25 1427.65,1248.25C1424.75,1248.25 1422.4,1245.9 1422.4,1243.01C1422.4,1240.11 1424.75,1237.76 1427.65,1237.76C1430.54,1237.76 1432.89,1240.11 1432.89,1243.01Z" style="fill:rgb(0,7,68);fill-rule:nonzero;"/>
    </g>
    <g transform="matrix(1.33769,0,0,1.33769,-623.07,-1250.43)">
        <path d="M1416.32,1235.13C1415.23,1235.13 1414.17,1234.53 1413.64,1233.48C1412.18,1230.6 1410.62,1227.67 1409,1224.76C1408.19,1223.31 1408.71,1221.49 1410.16,1220.68C1411.61,1219.87 1413.44,1220.39 1414.24,1221.84C1415.9,1224.82 1417.5,1227.82 1419,1230.77C1419.74,1232.25 1419.15,1234.06 1417.67,1234.81C1417.24,1235.03 1416.78,1235.13 1416.32,1235.13Z" style="fill:rgb(0,7,68);fill-rule:nonzero;"/>
    </g>
</svg>
