<?xml version="1.0" encoding="UTF-8" standalone="no"?>
<!DOCTYPE svg PUBLIC "-//W3C//DTD SVG 1.1//EN" "http://www.w3.org/Graphics/SVG/1.1/DTD/svg11.dtd">
<svg width="100%" height="100%" viewBox="0 0 800 600" version="1.1" xmlns="http://www.w3.org/2000/svg" xmlns:xlink="http://www.w3.org/1999/xlink" xml:space="preserve" xmlns:serif="http://www.serif.com/" style="fill-rule:evenodd;clip-rule:evenodd;stroke-linejoin:round;stroke-miterlimit:2;">
    <rect id="Artboard1" x="0" y="0" width="800" height="600" style="fill:none;"/>
    <g id="Artboard11" serif:id="Artboard1">
        <g transform="matrix(4.64149,0,0,4.64149,-2518.97,-7984.59)">
            <path d="M685.108,1805.91C685.108,1801.5 682.758,1797.42 678.942,1795.22L640.018,1772.69C637.316,1771.12 635.641,1768.25 635.612,1765.13L635.452,1747.97C635.413,1743.7 634.409,1739.49 632.516,1735.66L631.286,1733.17C630.304,1731.18 627.47,1731.18 626.488,1733.17L625.259,1735.66C623.366,1739.49 622.362,1743.7 622.322,1747.97L622.162,1765.13C622.133,1768.25 620.458,1771.12 617.756,1772.69L578.833,1795.22C575.017,1797.42 572.667,1801.5 572.667,1805.91C589.605,1796.72 610.759,1791.49 619.59,1789.57C620.797,1789.31 621.929,1790.24 621.917,1791.47L618.303,1792.4C616.543,1792.86 615.431,1794.59 615.755,1796.38L616.625,1801.19C616.743,1801.84 617.073,1802.43 617.564,1802.87C618.076,1803.33 618.412,1803.96 618.516,1804.64L618.782,1806.37L619.122,1804.44C619.228,1803.83 619.517,1803.28 619.95,1802.84L620.679,1802.11L621.829,1800.92L621.796,1804.56C621.774,1806.9 622.049,1809.22 622.614,1811.49L625.458,1822.9L613.151,1827.47C610.514,1828.45 608.899,1831.11 609.252,1833.9L609.786,1838.12L627.595,1831.47L628.387,1834.65C628.517,1835.17 629.257,1835.17 629.387,1834.65L630.179,1831.47L647.989,1838.12L648.527,1833.87C648.877,1831.1 647.282,1828.44 644.668,1827.45L632.347,1822.77L635.16,1811.49C635.726,1809.22 636.001,1806.9 635.979,1804.56L635.945,1800.92L637.096,1802.11L637.824,1802.84C638.257,1803.28 638.546,1803.83 638.652,1804.44L638.993,1806.37L639.258,1804.64C639.362,1803.96 639.699,1803.33 640.21,1802.87C640.701,1802.43 641.031,1801.84 641.149,1801.19L642.019,1796.38C642.343,1794.59 641.232,1792.86 639.472,1792.4L635.857,1791.47C635.846,1790.24 636.978,1789.31 638.184,1789.57C647.015,1791.49 668.169,1796.72 685.108,1805.91Z" style="fill:rgb(0,7,70);fill-rule:nonzero;"/>
        </g>
    </g>
</svg>
